<?xml version="1.0" encoding="utf-8"?>
<!-- Generator: Adobe Illustrator 21.0.0, SVG Export Plug-In . SVG Version: 6.00 Build 0)  -->
<svg version="1.1" id="Livello_1" xmlns="http://www.w3.org/2000/svg" xmlns:xlink="http://www.w3.org/1999/xlink" x="0px" y="0px"
	 viewBox="0 0 1920 1080" style="enable-background:new 0 0 1920 1080;" xml:space="preserve">
<style type="text/css">
	.st0{fill:#212121;stroke:#424242;stroke-miterlimit:10;}
	.st1{fill:#F44336;stroke:#B71C1C;stroke-width:11;stroke-miterlimit:10;}
	.st2{fill:none;stroke:#B71C1C;stroke-width:5;stroke-linecap:round;stroke-miterlimit:10;}
	.st3{opacity:0.2;}
	.st4{fill:none;stroke:#3E2723;stroke-width:11;stroke-linecap:round;stroke-miterlimit:10;}
	.st5{fill:none;stroke:#B71C1C;stroke-width:11;stroke-linecap:round;stroke-miterlimit:10;}
	.st6{fill:#272525;}
</style>
<g id="Livello_1">
	<g>
		<g id="Livello_2_8_">
			<g>
				<g>
					<path class="st0" d="M248.7,333.6c0-16.1-5.7-28.4-17-37.1c-11.4-8.6-31.8-17.7-61.3-27.3c-29.5-9.6-52.9-19-70.1-28.3
						c-46.9-25.4-70.4-59.5-70.4-102.5c0-22.3,6.3-42.3,18.9-59.8c12.6-17.5,30.7-31.2,54.2-41c23.6-9.8,50-14.8,79.4-14.8
						c29.5,0,55.8,5.4,78.9,16c23.1,10.7,41,25.8,53.8,45.3c12.8,19.5,19.2,41.6,19.2,66.4H249c0-18.9-6-33.6-17.9-44.2
						c-11.9-10.5-28.7-15.8-50.3-15.8c-20.8,0-37,4.4-48.6,13.2c-11.5,8.8-17.3,20.4-17.3,34.8c0,13.4,6.8,24.7,20.3,33.8
						c13.5,9.1,33.5,17.6,59.8,25.6c48.5,14.6,83.8,32.7,105.9,54.2s33.2,48.5,33.2,80.6c0,35.8-13.5,63.8-40.6,84.2
						c-27.1,20.4-63.5,30.5-109.3,30.5c-31.8,0-60.8-5.8-86.9-17.5c-26.1-11.6-46-27.6-59.8-47.8C23.9,362.2,17,338.7,17,312h85.5
						c0,45.6,27.3,68.4,81.8,68.4c20.3,0,36.1-4.1,47.4-12.4C243,359.8,248.7,348.3,248.7,333.6z"/>
					<path class="st0" d="M373.6,285.6c0-48.3,10.7-86.4,32.2-114.4c21.5-28,51-42,88.4-42c32.9,0,59.2,12.6,78.7,37.8l5.4-32.1
						h72.1v425.3h-82.3V415.6c-18.9,21.4-43.7,32.1-74.4,32.1c-36.5,0-65.7-14.2-87.5-42.6C384.5,376.7,373.6,336.9,373.6,285.6z
						 M455.7,291.4c0,29.4,5.2,51.8,15.5,67.1c10.3,15.4,24.8,23,43.6,23c25.2,0,43-10,53.4-30.1V224.3c-10.2-19.3-27.8-29-52.8-29
						c-18.9,0-33.6,7.7-44,23C460.9,233.7,455.7,258,455.7,291.4z"/>
					<path class="st0" d="M898.9,410.8c-20.3,24.6-48.3,36.9-84,36.9c-32.9,0-58.1-9.5-75.4-28.4c-17.3-18.9-26.2-46.7-26.5-83.2
						V134.8H795v198.7c0,32,14.6,48,43.7,48c27.8,0,46.9-9.7,57.4-29V134.8h82.3V442h-77.2L898.9,410.8z"/>
					<path class="st0" d="M1027.6,285.6c0-30.5,5.9-57.6,17.6-81.5c11.7-23.9,28.6-42.3,50.7-55.4c22.1-13.1,47.7-19.6,76.8-19.6
						c41.5,0,75.3,12.7,101.5,38c26.2,25.4,40.8,59.8,43.9,103.4l0.6,21c0,47.1-13.2,84.9-39.5,113.4
						c-26.3,28.5-61.6,42.7-105.9,42.7c-44.3,0-79.6-14.2-106.1-42.6c-26.4-28.4-39.6-67-39.6-115.8V285.6z M1109.6,291.4
						c0,29.2,5.5,51.5,16.5,67c11,15.5,26.7,23.2,47.1,23.2c19.9,0,35.4-7.6,46.6-22.9c11.2-15.3,16.8-39.7,16.8-73.2
						c0-28.6-5.6-50.8-16.8-66.5c-11.2-15.7-26.9-23.6-47.1-23.6c-20.1,0-35.6,7.8-46.6,23.5
						C1115.1,234.4,1109.6,258.6,1109.6,291.4z"/>
					<path class="st1" d="M1269.1,245.1c-14.2-10.2-17.7-3.6-34.8,0.1c-103.3,22.3-599.1,129.3-635.5,372.9
						c-40.8,273.1,320.2,438.8,503.6,239.3s2.4-422,122.3-506.3C1306.5,293.6,1291.7,261.3,1269.1,245.1z"/>
					<g>
						<path class="st2" d="M1256.5,257.1c0,0-558.4,264.7-496.9,452.5"/>
						<g>
							<g class="st3">
								<path class="st4" d="M1256.5,258.1c0,0-558.4,264.7-496.9,452.5"/>
							</g>
							<path class="st5" d="M1256.5,257.1c0,0-558.4,264.7-496.9,452.5"/>
						</g>
						<g>
							
								<image style="overflow:visible;opacity:0.2;" width="532" height="483" xlink:href="DD96BDB0.png"  transform="matrix(1 0 0 1 744 243)">
							</image>
							<path class="st2" d="M1256.5,257.1c0,0-558.4,264.7-496.9,452.5"/>
						</g>
					</g>
					<path class="st0" d="M1458.9,375.9h150.2V442h-255v-50L1498.6,201h-140.3v-66.2h246.2v48.3L1458.9,375.9z"/>
					<path class="st0" d="M1775.2,325.9l56.8-191.1h88l-123.5,354.9l-6.8,16.2c-18.4,40.1-48.7,60.2-90.9,60.2
						c-11.9,0-24-1.8-36.3-5.4v-62.2l12.5,0.3c15.5,0,27.1-2.4,34.8-7.1c7.7-4.7,13.7-12.6,18-23.6l9.7-25.3l-107.6-308.1h88.3
						L1775.2,325.9z"/>
				</g>
				<path d="M1318,270.5c-3-43.5-17.7-78-43.9-103.4c-8.9-8.6-18.8-15.8-29.5-21.5c-23.5-12.5-51.9,4.5-51.9,31.1v0.7
					c0,11.4,5.8,21.9,14.9,28.8c4.5,3.4,8.5,7.6,12.1,12.7c11.2,15.7,16.8,37.9,16.8,66.5c0,33.6-1.3,51.2-12.4,75.9
					c-2.5,5.5-9.2,24-13.7,27.3c-9.1,6.7-17.6,58.1-17.6,58.1h0.1c35.2-3.7,64-17.6,86.3-41.7c26.3-28.5,39.5-66.3,39.5-113.4
					L1318,270.5z"/>
			</g>
			<g>
				
					<image style="overflow:visible;opacity:0.15;" width="1915" height="936" xlink:href="DD96BDB1.png"  transform="matrix(1 0 0 1 11 16)">
				</image>
				<g>
					<g>
						<path class="st6" d="M248.7,333.6c0-16.1-5.7-28.4-17-37.1c-11.4-8.6-31.8-17.7-61.3-27.3c-29.5-9.6-52.9-19-70.1-28.3
							c-46.9-25.4-70.4-59.5-70.4-102.5c0-22.3,6.3-42.3,18.9-59.8c12.6-17.5,30.7-31.2,54.2-41c23.6-9.8,50-14.8,79.4-14.8
							c29.5,0,55.8,5.4,78.9,16c23.1,10.7,41,25.8,53.8,45.3c12.8,19.5,19.2,41.6,19.2,66.4H249c0-18.9-6-33.6-17.9-44.2
							c-11.9-10.5-28.7-15.8-50.3-15.8c-20.8,0-37,4.4-48.6,13.2c-11.5,8.8-17.3,20.4-17.3,34.8c0,13.4,6.8,24.7,20.3,33.8
							c13.5,9.1,33.5,17.6,59.8,25.6c48.5,14.6,83.8,32.7,105.9,54.2s33.2,48.5,33.2,80.6c0,35.8-13.5,63.8-40.6,84.2
							c-27.1,20.4-63.5,30.5-109.3,30.5c-31.8,0-60.8-5.8-86.9-17.5c-26.1-11.6-46-27.6-59.8-47.8C23.9,362.2,17,338.7,17,312h85.5
							c0,45.6,27.3,68.4,81.8,68.4c20.3,0,36.1-4.1,47.4-12.4C243,359.8,248.7,348.3,248.7,333.6z"/>
						<path class="st6" d="M373.6,285.6c0-48.3,10.7-86.4,32.2-114.4c21.5-28,51-42,88.4-42c32.9,0,59.2,12.6,78.7,37.8l5.4-32.1
							h72.1v425.3h-82.3V415.6c-18.9,21.4-43.7,32.1-74.4,32.1c-36.5,0-65.7-14.2-87.5-42.6C384.5,376.7,373.6,336.9,373.6,285.6z
							 M455.7,291.4c0,29.4,5.2,51.8,15.5,67.1c10.3,15.4,24.8,23,43.6,23c25.2,0,43-10,53.4-30.1V224.3c-10.2-19.3-27.8-29-52.8-29
							c-18.9,0-33.6,7.7-44,23C460.9,233.7,455.7,258,455.7,291.4z"/>
						<path class="st6" d="M898.9,410.8c-20.3,24.6-48.3,36.9-84,36.9c-32.9,0-58.1-9.5-75.4-28.4c-17.3-18.9-26.2-46.7-26.5-83.2
							V134.8H795v198.7c0,32,14.6,48,43.7,48c27.8,0,46.9-9.7,57.4-29V134.8h82.3V442h-77.2L898.9,410.8z"/>
						<path class="st6" d="M1027.6,285.6c0-30.5,5.9-57.6,17.6-81.5c11.7-23.9,28.6-42.3,50.7-55.4c22.1-13.1,47.7-19.6,76.8-19.6
							c41.5,0,75.3,12.7,101.5,38c26.2,25.4,40.8,59.8,43.9,103.4l0.6,21c0,47.1-13.2,84.9-39.5,113.4
							c-26.3,28.5-61.6,42.7-105.9,42.7c-44.3,0-79.6-14.2-106.1-42.6c-26.4-28.4-39.6-67-39.6-115.8V285.6z M1109.6,291.4
							c0,29.2,5.5,51.5,16.5,67c11,15.5,26.7,23.2,47.1,23.2c19.9,0,35.4-7.6,46.6-22.9c11.2-15.3,16.8-39.7,16.8-73.2
							c0-28.6-5.6-50.8-16.8-66.5c-11.2-15.7-26.9-23.6-47.1-23.6c-20.1,0-35.6,7.8-46.6,23.5
							C1115.1,234.4,1109.6,258.6,1109.6,291.4z"/>
						<path class="st6" d="M1269.1,245.1c-14.2-10.2-17.7-3.6-34.8,0.1c-103.3,22.3-599.1,129.3-635.5,372.9
							c-40.8,273.1,320.2,438.8,503.6,239.3s2.4-422,122.3-506.3C1306.5,293.6,1291.7,261.3,1269.1,245.1z"/>
						<g>
							<path class="st6" d="M1256.5,257.1c0,0-558.4,264.7-496.9,452.5"/>
							<path class="st6" d="M1256.5,257.1c0,0-558.4,264.7-496.9,452.5"/>
							<g>
								<g>
									<path class="st6" d="M1256.5,258.1c0,0-558.4,264.7-496.9,452.5"/>
								</g>
								<path class="st6" d="M1256.5,257.1c0,0-558.4,264.7-496.9,452.5"/>
							</g>
							<g>
								<path class="st6" d="M1256.5,257.1c0,0-558.4,264.7-496.9,452.5"/>
							</g>
						</g>
						<path class="st6" d="M1458.9,375.9h150.2V442h-255v-50L1498.6,201h-140.3v-66.2h246.2v48.3L1458.9,375.9z"/>
						<path class="st6" d="M1775.2,325.9l56.8-191.1h88l-123.5,354.9l-6.8,16.2c-18.4,40.1-48.7,60.2-90.9,60.2
							c-11.9,0-24-1.8-36.3-5.4v-62.2l12.5,0.3c15.5,0,27.1-2.4,34.8-7.1c7.7-4.7,13.7-12.6,18-23.6l9.7-25.3l-107.6-308.1h88.3
							L1775.2,325.9z"/>
					</g>
					<path class="st6" d="M1318,270.5c-3-43.5-17.7-78-43.9-103.4c-8.9-8.6-18.8-15.8-29.5-21.5c-23.5-12.5-51.9,4.5-51.9,31.1v0.7
						c0,11.4,5.8,21.9,14.9,28.8c4.5,3.4,8.5,7.6,12.1,12.7c11.2,15.7,16.8,37.9,16.8,66.5c0,33.6-1.3,51.2-12.4,75.9
						c-2.5,5.5-9.2,24-13.7,27.3c-9.1,6.7-17.6,58.1-17.6,58.1h0.1c35.2-3.7,64-17.6,86.3-41.7c26.3-28.5,39.5-66.3,39.5-113.4
						L1318,270.5z"/>
				</g>
			</g>
			<g>
				
					<image style="overflow:visible;opacity:0.3;" width="1915" height="936" xlink:href="DD96BDBC.png"  transform="matrix(1 0 0 1 11 20)">
				</image>
				<g>
					<g>
						<path class="st6" d="M248.7,333.6c0-16.1-5.7-28.4-17-37.1c-11.4-8.6-31.8-17.7-61.3-27.3c-29.5-9.6-52.9-19-70.1-28.3
							c-46.9-25.4-70.4-59.5-70.4-102.5c0-22.3,6.3-42.3,18.9-59.8c12.6-17.5,30.7-31.2,54.2-41c23.6-9.8,50-14.8,79.4-14.8
							c29.5,0,55.8,5.4,78.9,16c23.1,10.7,41,25.8,53.8,45.3c12.8,19.5,19.2,41.6,19.2,66.4H249c0-18.9-6-33.6-17.9-44.2
							c-11.9-10.5-28.7-15.8-50.3-15.8c-20.8,0-37,4.4-48.6,13.2c-11.5,8.8-17.3,20.4-17.3,34.8c0,13.4,6.8,24.7,20.3,33.8
							c13.5,9.1,33.5,17.6,59.8,25.6c48.5,14.6,83.8,32.7,105.9,54.2s33.2,48.5,33.2,80.6c0,35.8-13.5,63.8-40.6,84.2
							c-27.1,20.4-63.5,30.5-109.3,30.5c-31.8,0-60.8-5.8-86.9-17.5c-26.1-11.6-46-27.6-59.8-47.8C23.9,362.2,17,338.7,17,312h85.5
							c0,45.6,27.3,68.4,81.8,68.4c20.3,0,36.1-4.1,47.4-12.4C243,359.8,248.7,348.3,248.7,333.6z"/>
						<path class="st6" d="M373.6,285.6c0-48.3,10.7-86.4,32.2-114.4c21.5-28,51-42,88.4-42c32.9,0,59.2,12.6,78.7,37.8l5.4-32.1
							h72.1v425.3h-82.3V415.6c-18.9,21.4-43.7,32.1-74.4,32.1c-36.5,0-65.7-14.2-87.5-42.6C384.5,376.7,373.6,336.9,373.6,285.6z
							 M455.7,291.4c0,29.4,5.2,51.8,15.5,67.1c10.3,15.4,24.8,23,43.6,23c25.2,0,43-10,53.4-30.1V224.3c-10.2-19.3-27.8-29-52.8-29
							c-18.9,0-33.6,7.7-44,23C460.9,233.7,455.7,258,455.7,291.4z"/>
						<path class="st6" d="M898.9,410.8c-20.3,24.6-48.3,36.9-84,36.9c-32.9,0-58.1-9.5-75.4-28.4c-17.3-18.9-26.2-46.7-26.5-83.2
							V134.8H795v198.7c0,32,14.6,48,43.7,48c27.8,0,46.9-9.7,57.4-29V134.8h82.3V442h-77.2L898.9,410.8z"/>
						<path class="st6" d="M1027.6,285.6c0-30.5,5.9-57.6,17.6-81.5c11.7-23.9,28.6-42.3,50.7-55.4c22.1-13.1,47.7-19.6,76.8-19.6
							c41.5,0,75.3,12.7,101.5,38c26.2,25.4,40.8,59.8,43.9,103.4l0.6,21c0,47.1-13.2,84.9-39.5,113.4
							c-26.3,28.5-61.6,42.7-105.9,42.7c-44.3,0-79.6-14.2-106.1-42.6c-26.4-28.4-39.6-67-39.6-115.8V285.6z M1109.6,291.4
							c0,29.2,5.5,51.5,16.5,67c11,15.5,26.7,23.2,47.1,23.2c19.9,0,35.4-7.6,46.6-22.9c11.2-15.3,16.8-39.7,16.8-73.2
							c0-28.6-5.6-50.8-16.8-66.5c-11.2-15.7-26.9-23.6-47.1-23.6c-20.1,0-35.6,7.8-46.6,23.5
							C1115.1,234.4,1109.6,258.6,1109.6,291.4z"/>
						<path class="st6" d="M1269.1,245.1c-14.2-10.2-17.7-3.6-34.8,0.1c-103.3,22.3-599.1,129.3-635.5,372.9
							c-40.8,273.1,320.2,438.8,503.6,239.3s2.4-422,122.3-506.3C1306.5,293.6,1291.7,261.3,1269.1,245.1z"/>
						<g>
							<path class="st6" d="M1256.5,257.1c0,0-558.4,264.7-496.9,452.5"/>
							<path class="st6" d="M1256.5,257.1c0,0-558.4,264.7-496.9,452.5"/>
							<g>
								<g>
									<path class="st6" d="M1256.5,258.1c0,0-558.4,264.7-496.9,452.5"/>
								</g>
								<path class="st6" d="M1256.5,257.1c0,0-558.4,264.7-496.9,452.5"/>
							</g>
							<g>
								<path class="st6" d="M1256.5,257.1c0,0-558.4,264.7-496.9,452.5"/>
							</g>
						</g>
						<path class="st6" d="M1458.9,375.9h150.2V442h-255v-50L1498.6,201h-140.3v-66.2h246.2v48.3L1458.9,375.9z"/>
						<path class="st6" d="M1775.2,325.9l56.8-191.1h88l-123.5,354.9l-6.8,16.2c-18.4,40.1-48.7,60.2-90.9,60.2
							c-11.9,0-24-1.8-36.3-5.4v-62.2l12.5,0.3c15.5,0,27.1-2.4,34.8-7.1c7.7-4.7,13.7-12.6,18-23.6l9.7-25.3l-107.6-308.1h88.3
							L1775.2,325.9z"/>
					</g>
					<path class="st6" d="M1318,270.5c-3-43.5-17.7-78-43.9-103.4c-8.9-8.6-18.8-15.8-29.5-21.5c-23.5-12.5-51.9,4.5-51.9,31.1v0.7
						c0,11.4,5.8,21.9,14.9,28.8c4.5,3.4,8.5,7.6,12.1,12.7c11.2,15.7,16.8,37.9,16.8,66.5c0,33.6-1.3,51.2-12.4,75.9
						c-2.5,5.5-9.2,24-13.7,27.3c-9.1,6.7-17.6,58.1-17.6,58.1h0.1c35.2-3.7,64-17.6,86.3-41.7c26.3-28.5,39.5-66.3,39.5-113.4
						L1318,270.5z"/>
				</g>
			</g>
		</g>
		<g>
			<g>
				<path class="st0" d="M248.7,333.6c0-16.1-5.7-28.4-17-37.1c-11.4-8.6-31.8-17.7-61.3-27.3c-29.5-9.6-52.9-19-70.1-28.3
					c-46.9-25.4-70.4-59.5-70.4-102.5c0-22.3,6.3-42.3,18.9-59.8c12.6-17.5,30.7-31.2,54.2-41c23.6-9.8,50-14.8,79.4-14.8
					c29.5,0,55.8,5.4,78.9,16c23.1,10.7,41,25.8,53.8,45.3c12.8,19.5,19.2,41.6,19.2,66.4H249c0-18.9-6-33.6-17.9-44.2
					c-11.9-10.5-28.7-15.8-50.3-15.8c-20.8,0-37,4.4-48.6,13.2c-11.5,8.8-17.3,20.4-17.3,34.8c0,13.4,6.8,24.7,20.3,33.8
					c13.5,9.1,33.5,17.6,59.8,25.6c48.5,14.6,83.8,32.7,105.9,54.2s33.2,48.5,33.2,80.6c0,35.8-13.5,63.8-40.6,84.2
					c-27.1,20.4-63.5,30.5-109.3,30.5c-31.8,0-60.8-5.8-86.9-17.5c-26.1-11.6-46-27.6-59.8-47.8C23.9,362.2,17,338.7,17,312h85.5
					c0,45.6,27.3,68.4,81.8,68.4c20.3,0,36.1-4.1,47.4-12.4C243,359.8,248.7,348.3,248.7,333.6z"/>
				<path class="st0" d="M373.6,285.6c0-48.3,10.7-86.4,32.2-114.4c21.5-28,51-42,88.4-42c32.9,0,59.2,12.6,78.7,37.8l5.4-32.1h72.1
					v425.3h-82.3V415.6c-18.9,21.4-43.7,32.1-74.4,32.1c-36.5,0-65.7-14.2-87.5-42.6C384.5,376.7,373.6,336.9,373.6,285.6z
					 M455.7,291.4c0,29.4,5.2,51.8,15.5,67.1c10.3,15.4,24.8,23,43.6,23c25.2,0,43-10,53.4-30.1V224.3c-10.2-19.3-27.8-29-52.8-29
					c-18.9,0-33.6,7.7-44,23C460.9,233.7,455.7,258,455.7,291.4z"/>
				<path class="st0" d="M898.9,410.8c-20.3,24.6-48.3,36.9-84,36.9c-32.9,0-58.1-9.5-75.4-28.4c-17.3-18.9-26.2-46.7-26.5-83.2
					V134.8H795v198.7c0,32,14.6,48,43.7,48c27.8,0,46.9-9.7,57.4-29V134.8h82.3V442h-77.2L898.9,410.8z"/>
				<path class="st0" d="M1027.6,285.6c0-30.5,5.9-57.6,17.6-81.5c11.7-23.9,28.6-42.3,50.7-55.4c22.1-13.1,47.7-19.6,76.8-19.6
					c41.5,0,75.3,12.7,101.5,38c26.2,25.4,40.8,59.8,43.9,103.4l0.6,21c0,47.1-13.2,84.9-39.5,113.4
					c-26.3,28.5-61.6,42.7-105.9,42.7c-44.3,0-79.6-14.2-106.1-42.6c-26.4-28.4-39.6-67-39.6-115.8V285.6z M1109.6,291.4
					c0,29.2,5.5,51.5,16.5,67c11,15.5,26.7,23.2,47.1,23.2c19.9,0,35.4-7.6,46.6-22.9c11.2-15.3,16.8-39.7,16.8-73.2
					c0-28.6-5.6-50.8-16.8-66.5c-11.2-15.7-26.9-23.6-47.1-23.6c-20.1,0-35.6,7.8-46.6,23.5C1115.1,234.4,1109.6,258.6,1109.6,291.4
					z"/>
				<path class="st1" d="M1269.1,245.1c-14.2-10.2-17.7-3.6-34.8,0.1c-103.3,22.3-599.1,129.3-635.5,372.9
					c-40.8,273.1,320.2,438.8,503.6,239.3s2.4-422,122.3-506.3C1306.5,293.6,1291.7,261.3,1269.1,245.1z"/>
				<g>
					<path class="st2" d="M1256.5,257.1c0,0-558.4,264.7-496.9,452.5"/>
					<g>
						<g class="st3">
							<path class="st4" d="M1256.5,258.1c0,0-558.4,264.7-496.9,452.5"/>
						</g>
						<path class="st5" d="M1256.5,257.1c0,0-558.4,264.7-496.9,452.5"/>
					</g>
					<g>
						
							<image style="overflow:visible;opacity:0.2;" width="532" height="483" xlink:href="DD96BDBF.png"  transform="matrix(1 0 0 1 744 243)">
						</image>
						<path class="st2" d="M1256.5,257.1c0,0-558.4,264.7-496.9,452.5"/>
					</g>
				</g>
				<path class="st0" d="M1458.9,375.9h150.2V442h-255v-50L1498.6,201h-140.3v-66.2h246.2v48.3L1458.9,375.9z"/>
				<path class="st0" d="M1775.2,325.9l56.8-191.1h88l-123.5,354.9l-6.8,16.2c-18.4,40.1-48.7,60.2-90.9,60.2
					c-11.9,0-24-1.8-36.3-5.4v-62.2l12.5,0.3c15.5,0,27.1-2.4,34.8-7.1c7.7-4.7,13.7-12.6,18-23.6l9.7-25.3l-107.6-308.1h88.3
					L1775.2,325.9z"/>
			</g>
			<path d="M1318,270.5c-3-43.5-17.7-78-43.9-103.4c-8.9-8.6-18.8-15.8-29.5-21.5c-23.5-12.5-51.9,4.5-51.9,31.1v0.7
				c0,11.4,5.8,21.9,14.9,28.8c4.5,3.4,8.5,7.6,12.1,12.7c11.2,15.7,16.8,37.9,16.8,66.5c0,33.6-1.3,51.2-12.4,75.9
				c-2.5,5.5-9.2,24-13.7,27.3c-9.1,6.7-17.6,58.1-17.6,58.1h0.1c35.2-3.7,64-17.6,86.3-41.7c26.3-28.5,39.5-66.3,39.5-113.4
				L1318,270.5z"/>
		</g>
	</g>
</g>
</svg>
